<svg width="24" height="24" viewBox="0 0 24 24" fill="none" xmlns="http://www.w3.org/2000/svg">
<path d="M22 4.12435V11.6987C22 11.8195 21.9576 11.9364 21.88 12.0306L19.9415 14.3907C19.8379 14.5168 19.681 14.5902 19.5154 14.5902H13.3767C13.27 14.5902 13.2107 14.4697 13.2773 14.3884L21.7733 4.04704C21.8481 3.95507 22 4.00705 22 4.12435Z" fill="#FF4654"></path>
<path d="M8.50224 19.8005L2.11953 12.0307C2.04197 11.9365 2 11.8197 2 11.6988V4.12447C2 4.00718 2.15193 3.95519 2.22675 4.04672L15.1664 19.7983C15.233 19.8796 15.1737 20 15.067 20H8.92836C8.76229 20 8.6058 19.9267 8.50224 19.8005Z" fill="#FF4654"></path>
</svg>
